<?xml version="1.0" ?><!DOCTYPE svg  PUBLIC '-//W3C//DTD SVG 1.1//EN'  'http://www.w3.org/Graphics/SVG/1.1/DTD/svg11.dtd'><svg enable-background="new 0 0 512 512" height="512px" id="Calque_1" version="1.1" viewBox="0 0 512 512" width="512px" xml:space="preserve" xmlns="http://www.w3.org/2000/svg" xmlns:xlink="http://www.w3.org/1999/xlink"><path d="M494.036,258.803c-0.916-2.601-2.591-7.355-19.468-24.088c7.312-1.152,13.203-3.205,17.818-6.189  c7.285-4.71,11.463-11.853,11.463-19.596c0-20.518-15.191-32.06-29.484-32.503l-29.985-0.007c-0.348,0-0.694,0.01-1.039,0.029  c-16.32-44.227-26.076-55.673-33.516-60.63c-1.167-0.781-2.433-1.492-3.827-2.146c-1.188-4.329-3.614-8.293-7.04-11.367  l-0.136-0.121c-1.375-1.204-2.87-2.243-4.455-3.106c-4.93-13.256-13.41-21.869-24.423-24.59  c-11.638-2.881-76.342-3.561-113.875-3.709h-0.139c-37.534,0.149-102.237,0.828-113.868,3.708  c-11.02,2.723-19.502,11.337-24.432,24.597c-1.594,0.869-3.099,1.916-4.482,3.129l-0.118,0.105  c-3.429,3.072-5.855,7.037-7.042,11.369c-1.379,0.647-2.636,1.351-3.802,2.123c-7.459,4.975-17.218,16.421-33.529,60.638  c-0.344-0.02-0.69-0.029-1.037-0.029H38.1l-0.464,0.007C23.342,176.87,8.15,188.412,8.15,208.93c0,7.737,4.17,14.877,11.442,19.588  c4.623,2.995,10.527,5.053,17.853,6.205c-16.908,16.804-18.624,21.673-19.466,24.065c-2.479,7.008-5.678,40.914-6.225,65.965  c-0.831,38.158,3.07,63.033,12.217,77.254v29.212c0,15.99,13.014,29,29.01,29h42.6c15.996,0,29.01-13.01,29.01-29v-8.756  c24.123,1.085,51.3,2.026,77.458,2.678c4.962,5.105,11.872,8.168,19.292,8.168h69.32c7.435,0,14.348-3.065,19.308-8.179  c26.425-0.658,53.584-1.596,77.442-2.667v8.756c0,15.99,13.014,29,29.01,29h42.6c15.996,0,29.011-13.01,29.011-29v-29.232  c9.141-14.235,13.037-39.103,12.206-77.229C499.698,299.722,496.511,265.819,494.036,258.803z" fill="#20ACC3"/><linearGradient gradientUnits="userSpaceOnUse" id="SVGID_1_" x1="255.9998" x2="255.9997" y1="70.7795" y2="460.22"><stop offset="0" style="stop-color:#FFFFFF;stop-opacity:0"/><stop offset="1" style="stop-color:#000000;stop-opacity:0.3"/></linearGradient><path d="M494.036,258.803c-0.916-2.601-2.591-7.355-19.468-24.088c7.312-1.152,13.203-3.205,17.818-6.189  c7.285-4.71,11.463-11.853,11.463-19.596c0-20.518-15.191-32.06-29.484-32.503l-29.985-0.007c-0.348,0-0.694,0.01-1.039,0.029  c-16.32-44.227-26.076-55.673-33.516-60.63c-1.167-0.781-2.433-1.492-3.827-2.146c-1.188-4.329-3.614-8.293-7.04-11.367  l-0.136-0.121c-1.375-1.204-2.87-2.243-4.455-3.106c-4.93-13.256-13.41-21.869-24.423-24.59  c-11.638-2.881-76.342-3.561-113.875-3.709h-0.139c-37.534,0.149-102.237,0.828-113.868,3.708  c-11.02,2.723-19.502,11.337-24.432,24.597c-1.594,0.869-3.099,1.916-4.482,3.129l-0.118,0.105  c-3.429,3.072-5.855,7.037-7.042,11.369c-1.379,0.647-2.636,1.351-3.802,2.123c-7.459,4.975-17.218,16.421-33.529,60.638  c-0.344-0.02-0.69-0.029-1.037-0.029H38.1l-0.464,0.007C23.342,176.87,8.15,188.412,8.15,208.93c0,7.737,4.17,14.877,11.442,19.588  c4.623,2.995,10.527,5.053,17.853,6.205c-16.908,16.804-18.624,21.673-19.466,24.065c-2.479,7.008-5.678,40.914-6.225,65.965  c-0.831,38.158,3.07,63.033,12.217,77.254v29.212c0,15.99,13.014,29,29.01,29h42.6c15.996,0,29.01-13.01,29.01-29v-8.756  c24.123,1.085,51.3,2.026,77.458,2.678c4.962,5.105,11.872,8.168,19.292,8.168h69.32c7.435,0,14.348-3.065,19.308-8.179  c26.425-0.658,53.584-1.596,77.442-2.667v8.756c0,15.99,13.014,29,29.01,29h42.6c15.996,0,29.011-13.01,29.011-29v-29.232  c9.141-14.235,13.037-39.103,12.206-77.229C499.698,299.722,496.511,265.819,494.036,258.803z" fill="url(#SVGID_1_)"/><g><path d="M236.28,377.7c0.06-0.38,0.11-0.771,0.11-1.17c0-3.931-3.19-7.13-7.11-7.13h-67.69   c-1.9,0-3.69,0.75-5.06,2.1c-1.33,1.33-2.07,3.12-2.07,5.03c0,3.93,3.2,7.12,7.13,7.12h49.46c2.13-3.61,6.04-5.95,10.29-5.95   H236.28z" fill="#FFFFFF"/><path d="M45.97,401.469v29.75c0,3.86,3.14,7,7.01,7h42.6c3.86,0,7.01-3.14,7.01-7v-24.85   c-27.8-1.51-46.35-3.04-55.17-4.561C46.93,401.73,46.45,401.61,45.97,401.469z" fill="#FFFFFF"/><path d="M72.6,210.92l-7.03-12.5H38.29c-1.39,0.08-7.97,0.95-8.13,10.16c0.39,0.7,3.74,5.25,23.28,5.25   c0.51,0.01,9.33,0.26,16.49,5.43C70.64,216.99,71.54,214.18,72.6,210.92z" fill="#FFFFFF"/><path d="M267.96,251.05L256,239.71l-11.95,11.34c-0.59,0.56-1.36,0.89-2.17,0.95l-18.32,1.25l10.66,4.86   c1.66,0.76,2.46,2.67,1.83,4.39l-3.22,8.79l22.33-5.5c0.28-0.06,0.56-0.1,0.84-0.1s0.56,0.04,0.84,0.1l22.34,5.5l-3.229-8.79   c-0.63-1.72,0.17-3.63,1.84-4.39l10.65-4.86L270.13,252C269.31,251.94,268.55,251.61,267.96,251.05z" fill="#FFFFFF"/><path d="M364.66,95.84c-3.05-0.75-13.49-1.34-27-1.78v17H375.1C373.29,104.15,369.81,97.12,364.66,95.84z" fill="#FFFFFF"/><path d="M277.62,111.06c-0.92-6.96-0.74-13.21-0.23-18.13c-8.399-0.08-15.84-0.13-21.39-0.15   c-5.55,0.02-12.99,0.07-21.39,0.15c0.51,4.92,0.68,11.17-0.23,18.13H277.62z" fill="#FFFFFF"/><path d="M129.52,121.59h252.96c1.279,0,2.35-0.81,2.35-1.76c0-0.55-0.34-0.94-0.54-1.12   c-0.47-0.41-1.12-0.65-1.81-0.65H281.72c0,0,0,0-0.01,0h-51.42c0,0,0,0-0.01,0H129.52c-0.69,0-1.35,0.24-1.83,0.67   c-0.18,0.16-0.53,0.55-0.53,1.1C127.16,120.78,128.24,121.59,129.52,121.59z" fill="#FFFFFF"/><path d="M174.34,94.06c-13.51,0.44-23.95,1.03-27,1.78c-5.15,1.28-8.63,8.31-10.44,15.22h37.44V94.06z" fill="#FFFFFF"/><path d="M290.67,384.7h-69.33c-2.13,0-4.07,1.43-4.71,3.49c-0.13,0.43-0.2,0.92-0.2,1.409v16.931   c0.01,0.08,0.01,0.08,0.02,0.16c0.14,2.55,2.34,4.619,4.89,4.619h69.32c2.55,0,4.75-2.069,4.89-4.609   c0.01-0.08,0.01-0.16,0.021-0.23v-16.87c0-0.5-0.07-0.989-0.21-1.46C294.731,386.139,292.79,384.7,290.67,384.7z" fill="#FFFFFF"/><path d="M68.63,284.74h62.72c0,0,0,0,0.01,0c0,0,0,0,0.01,0h312c3.41-17.78-5.11-53.91-5.37-54.99   c-0.12-0.38-0.43-1.41-0.91-3c-0.01,0-0.01-0.01-0.01-0.01c0-0.03-0.01-0.05-0.021-0.08c-0.8-2.56-2.479-7.95-4.79-15.03   c-14.35-43.63-27.31-72.62-34.659-77.52c-1.841-1.22-8.11-3.56-29.36-5.52H143.87c-21.35,1.96-27.64,4.3-29.48,5.53   c-7.35,4.89-20.31,33.88-34.67,77.52c-2.42,7.44-4.1,12.83-4.75,14.92c-0.01,0.04-0.02,0.08-0.03,0.11   c-0.5,1.67-0.83,2.73-0.95,3.11C73.64,231.24,65.24,267.059,68.63,284.74z M303.93,253.88l-20.29,9.25l4.37,11.93   c0.45,1.21,0.19,2.57-0.68,3.54c-0.67,0.75-1.62,1.16-2.6,1.16c-0.28,0-0.561-0.029-0.841-0.1L256,272.8l-27.89,6.86   c-1.25,0.31-2.58-0.101-3.44-1.061c-0.86-0.97-1.12-2.33-0.68-3.54l4.37-11.93l-20.29-9.25c-1.45-0.67-2.28-2.24-1.99-3.81   c0.29-1.58,1.61-2.76,3.21-2.87l30.85-2.1l13.45-12.75c1.35-1.28,3.47-1.28,4.82,0l13.45,12.75l30.85,2.1   c1.6,0.11,2.92,1.29,3.21,2.87C306.21,251.64,305.38,253.21,303.93,253.88z M81.93,227.97c2.07-7.58,20.6-74.32,33.58-86.22   c2.41-2.21,8.81-8.08,75.62-11.03c32.47-1.43,63.8-1.44,64.11-1.44h1.52c0,0,0.01,0,0.021,0c0.62,0,31.79,0.02,64.09,1.45   c66.81,2.94,73.21,8.81,75.62,11.02c12.979,11.9,31.51,78.65,33.58,86.22c0.29,1.07,0.06,2.21-0.63,3.08   c-0.66,0.85-1.681,1.34-2.75,1.34h-0.101c-1.14-0.03-115.14-3.23-169.83-3.23c-0.01,0-0.02-0.01-0.02-0.01h-1.5   c-54.69,0-168.69,3.21-169.83,3.24h-0.1c-1.07,0-2.09-0.49-2.75-1.34C81.87,230.18,81.64,229.04,81.93,227.97z" fill="#FFFFFF"/><path d="M377.14,324.83v-33.09H134.86v33.09c0,1.939-1.57,3.5-3.5,3.5c-29.82,0-51.49-1.71-66.23-5.25   c-0.05-0.01-0.1-0.021-0.15-0.03c-21.9-5.33-24.79-14.05-25.88-22.54L39,299.73c-1.76-13.341,6.34-14.881,6.68-14.94   c0.2-0.04,0.4-0.05,0.59-0.05h15.27c-2.06-13.33,1-33.47,3.36-45.82c-11.2,10.52-24.96,24.14-26.18,27.22   c-0.85,2.69-4.36,29.771-4.98,59.551c-0.75,36.26,3.18,60.149,11.07,67.26c1.19,1.09,2.42,1.729,3.8,1.96   c8.9,1.54,28.3,3.1,57.66,4.64c29.63,1.55,67.92,2.95,103.16,3.76V390.65h-47.84c-7.79,0-14.13-6.33-14.13-14.12   c0-3.78,1.47-7.33,4.13-9.99c2.7-2.67,6.25-4.14,10-4.14h67.69c7.78,0,14.11,6.34,14.11,14.13c0,0.399-0.04,0.779-0.07,1.17h25.36   c-0.029-0.391-0.069-0.771-0.069-1.16c0-7.8,6.33-14.14,14.109-14.14h67.69c3.75,0,7.29,1.47,9.979,4.13   c2.681,2.68,4.15,6.229,4.15,10.01c0,7.78-6.34,14.11-14.13,14.11h-47.84v12.659c35.54-0.829,73.83-2.22,103.16-3.76   c28.88-1.52,48.819-3.13,57.659-4.64c1.38-0.24,2.62-0.87,3.771-1.94c7.91-7.13,11.85-31.02,11.09-67.29   c-0.61-29.77-4.11-56.85-4.97-59.58c-1.21-3.04-14.98-16.669-26.181-27.189c2.36,12.36,5.42,32.5,3.351,45.83h15.27   c0.2,0,0.4,0.02,0.59,0.05c0.351,0.06,8.45,1.61,6.69,14.94l-0.11,0.779c-1.08,8.48-3.97,17.2-25.819,22.53   c-0.08,0.02-0.17,0.04-0.25,0.06c-14.75,3.521-36.4,5.23-66.181,5.23C378.71,328.33,377.14,326.769,377.14,324.83z M134.76,384.09   c0,1.84-1.42,3.36-3.26,3.49c-8.81,0.6-16.92,0.91-24.11,0.91c0,0,0,0-0.01,0c-26.33,0-41.28-3.95-45.7-12.061   c-2.32-4.26-0.96-8.449,0.21-10.26c0.64-1,1.75-1.6,2.94-1.6h66.43c1.94,0,3.5,1.569,3.5,3.5V384.09z M372.8,317.469   c0,1.79-1.34,3.28-3.109,3.48c-0.28,0.03-21.431,2.37-61.33,3.62c-0.08,0.01-0.16,0.029-0.24,0.029c-0.05,0-0.101-0.01-0.14-0.01   c-14.61,0.45-31.711,0.76-51.211,0.76c-0.01,0-0.01,0-0.01,0h-1.52c-19.5,0-36.61-0.31-51.22-0.76c-0.05,0-0.09,0.01-0.14,0.01   c-0.08,0-0.15-0.02-0.23-0.02c-39.91-1.26-61.06-3.59-61.34-3.63c-1.77-0.2-3.11-1.69-3.11-3.47v-19.261c0-1.93,1.57-3.5,3.5-3.5   h226.6c1.931,0,3.5,1.561,3.5,3.5V317.469z M447.17,364.57c1.19,0,2.3,0.6,2.94,1.6c1.17,1.811,2.529,6.01,0.21,10.26   c-4.42,8.12-19.37,12.061-45.7,12.061c-7.19,0-15.311-0.311-24.12-0.91c-1.84-0.13-3.26-1.65-3.26-3.49v-16.02   c0-1.931,1.56-3.5,3.5-3.5H447.17z" fill="#FFFFFF"/><path d="M357.54,376.54c0-1.92-0.74-3.71-2.08-5.05c-1.36-1.34-3.16-2.09-5.05-2.09h-67.69   c-3.92,0-7.109,3.199-7.109,7.14c0,0.39,0.05,0.78,0.109,1.16h14.95c4.25,0,8.17,2.35,10.29,5.95h49.45   C354.34,383.65,357.54,380.46,357.54,376.54z" fill="#FFFFFF"/><path d="M306.66,310.04c0,2.77,1.03,5.44,2.85,7.49c30.13-0.971,49.21-2.561,56.29-3.221v-12.59h-55.47   C307.99,303.849,306.66,306.82,306.66,310.04z" fill="#FFFFFF"/><path d="M466.06,298.8c0.62-4.689-0.39-6.569-1.01-7.06h-15.43v23.359c14.92-4.5,15.67-10.31,16.33-15.47   L466.06,298.8z" fill="#FFFFFF"/><path d="M481.84,208.58c-0.16-9.16-6.67-10.07-8.14-10.16H446.43l-7.029,12.51c1.04,3.2,1.939,6.01,2.67,8.33   c7.149-5.17,15.97-5.42,16.42-5.42C478.1,213.83,481.45,209.28,481.84,208.58z" fill="#FFFFFF"/><path d="M45.94,298.809l0.11,0.811c0.66,5.17,1.4,10.979,16.33,15.479V291.74H46.95   C46.33,292.23,45.32,294.11,45.94,298.809z" fill="#FFFFFF"/><path d="M444.13,373.17c0.33-0.58,0.45-1.12,0.47-1.6H384.24v9.239c7.399,0.45,14.24,0.681,20.38,0.681   C435.95,381.49,442.691,375.67,444.13,373.17z" fill="#FFFFFF"/><path d="M67.87,373.17c1.44,2.5,8.18,8.32,39.51,8.32c0.01,0,0.01,0,0.01,0c6.14,0,12.97-0.23,20.37-0.681v-9.239   H67.4C67.42,372.04,67.54,372.59,67.87,373.17z" fill="#FFFFFF"/><path d="M409.41,406.37v24.85c0,3.86,3.149,7,7.01,7h42.6c3.87,0,7.011-3.14,7.011-7v-29.75   c-0.48,0.13-0.96,0.25-1.45,0.34C455.691,403.33,437.13,404.86,409.41,406.37z" fill="#FFFFFF"/><path d="M146.2,301.719v12.59c7.08,0.66,26.16,2.25,56.29,3.23c1.82-2.06,2.85-4.73,2.85-7.5   c0-3.21-1.33-6.19-3.67-8.32H146.2z" fill="#FFFFFF"/><path d="M210.35,301.719c1.29,2.53,1.99,5.36,1.99,8.32c0,2.7-0.61,5.34-1.73,7.74   c13.07,0.35,27.96,0.569,44.63,0.569h1.51c0,0,0,0,0.01,0c16.67,0,31.561-0.229,44.63-0.58c-1.12-2.39-1.729-5.029-1.729-7.729   c0-2.96,0.7-5.79,1.99-8.32H210.35z" fill="#FFFFFF"/><path d="M85.31,232.39h0.1c1.14-0.03,115.14-3.24,169.83-3.24h1.5c0,0,0.01,0.01,0.02,0.01   c54.69,0,168.69,3.2,169.83,3.23h0.101c1.069,0,2.09-0.49,2.75-1.34c0.689-0.87,0.92-2.01,0.63-3.08   c-2.07-7.57-20.601-74.32-33.58-86.22c-2.41-2.21-8.811-8.08-75.62-11.02c-32.3-1.43-63.47-1.45-64.09-1.45   c-0.011,0-0.021,0-0.021,0h-1.52c-0.31,0-31.64,0.01-64.11,1.44c-66.81,2.95-73.21,8.82-75.62,11.03   c-12.98,11.9-31.51,78.64-33.58,86.22c-0.29,1.07-0.06,2.21,0.63,3.08C83.22,231.9,84.24,232.39,85.31,232.39z M120.24,146.91   c2.08-1.91,13.19-6.64,71.18-9.19c32.31-1.43,63.51-1.44,63.82-1.44h1.5c0,0,0.01,0,0.02,0c0.311,0,31.51,0.01,63.82,1.44   c57.99,2.56,69.1,7.28,71.18,9.19c9.07,8.31,23.88,55.71,30.29,78.35c-22.229-0.6-116.87-3.1-165.27-3.1   c-0.011,0-0.021-0.01-0.021-0.01h-1.52c-48.39,0-143.06,2.5-165.29,3.11C96.36,202.62,111.17,155.22,120.24,146.91z" fill="#052C49"/><path d="M131.26,364.57H64.83c-1.19,0-2.3,0.6-2.94,1.6c-1.17,1.811-2.53,6-0.21,10.26   c4.42,8.11,19.37,12.061,45.7,12.061c0.01,0,0.01,0,0.01,0c7.19,0,15.3-0.311,24.11-0.91c1.84-0.13,3.26-1.65,3.26-3.49v-16.02   C134.76,366.139,133.2,364.57,131.26,364.57z M127.76,380.809c-7.4,0.45-14.23,0.681-20.37,0.681c0,0,0,0-0.01,0   c-31.33,0-38.07-5.82-39.51-8.32c-0.33-0.58-0.45-1.13-0.47-1.6h60.36V380.809z" fill="#052C49"/><path d="M488.85,208.93c0-13.48-9.779-17.35-14.949-17.51H444.38c-1.26,0-2.43,0.68-3.05,1.79l-4.91,8.73   c-10.57-31.26-24.41-66.64-34.93-73.65c-1.601-1.07-4.431-2.42-11.11-3.78c0.91-1.36,1.45-2.96,1.45-4.68   c0-2.39-1.04-4.7-2.89-6.36c-1.771-1.55-4.061-2.41-6.46-2.41H382.3c-1.56-6.83-5.8-19.5-15.96-22.01   c-11.39-2.82-100.229-3.23-110.33-3.27h-0.02c-10.1,0.04-98.94,0.45-110.33,3.27c-10.16,2.51-14.4,15.18-15.96,22.01h-0.18   c-2.4,0-4.69,0.86-6.48,2.43c-1.83,1.64-2.88,3.95-2.88,6.34c0,1.72,0.55,3.33,1.47,4.68c-6.69,1.37-9.52,2.72-11.12,3.78   c-10.51,7.01-24.36,42.38-34.93,73.65l-4.91-8.73c-0.62-1.11-1.78-1.79-3.05-1.79H38.1c-5.17,0.16-14.95,4.03-14.95,17.51   c0,2.8,2.19,11.9,30.22,11.9c0.1,0.01,8.95,0.34,14.3,5.67c-0.05,0.17-0.09,0.32-0.13,0.45c-4.88,4.43-33.1,30.26-35.42,36.84   c-1.28,3.62-4.75,32.88-5.37,61.29c-0.83,38.14,3.29,62.32,12.22,71.92v34.22c0,7.721,6.28,14,14.01,14h42.6   c7.72,0,14.01-6.279,14.01-14V406.73c29.38,1.489,66.41,2.819,100.52,3.6c1.63,4.66,6.06,7.979,11.23,7.979h69.32   c5.17,0,9.609-3.319,11.229-7.989c34.391-0.79,71.41-2.11,100.521-3.59v24.489c0,7.721,6.29,14,14.01,14h42.6   c7.73,0,14.011-6.279,14.011-14V396.99c8.93-9.641,13.04-33.811,12.21-71.91c-0.61-28.39-4.07-57.66-5.351-61.29   c-2.319-6.58-30.54-32.4-35.42-36.83c-0.05-0.14-0.09-0.29-0.14-0.46c5.38-5.37,14.21-5.66,14.229-5.67   C486.66,220.83,488.85,211.73,488.85,208.93z M337.66,94.06c13.51,0.44,23.95,1.03,27,1.78c5.149,1.28,8.63,8.31,10.439,15.22   H337.66V94.06z M284.42,93.01c14.87,0.16,31.74,0.43,46.24,0.84v17.21h-45.97C283.67,104.05,283.88,97.78,284.42,93.01z    M234.61,92.93c8.4-0.08,15.84-0.13,21.39-0.15c5.55,0.02,12.99,0.07,21.39,0.15c-0.51,4.92-0.689,11.17,0.23,18.13h-43.24   C235.29,104.1,235.12,97.85,234.61,92.93z M181.34,93.85c14.5-0.41,31.37-0.68,46.24-0.84c0.54,4.77,0.75,11.05-0.27,18.05h-45.97   V93.85z M147.34,95.84c3.05-0.75,13.49-1.34,27-1.78v17H136.9C138.71,104.15,142.19,97.12,147.34,95.84z M127.69,118.73   c0.48-0.43,1.14-0.67,1.83-0.67h100.76c0.01,0,0.01,0,0.01,0h51.42c0.01,0,0.01,0,0.01,0h100.761c0.689,0,1.34,0.24,1.81,0.65   c0.2,0.18,0.54,0.57,0.54,1.12c0,0.95-1.07,1.76-2.35,1.76H129.52c-1.28,0-2.36-0.81-2.36-1.76   C127.16,119.28,127.51,118.89,127.69,118.73z M74.94,226.67c0.01-0.03,0.02-0.07,0.03-0.11c0.65-2.09,2.33-7.48,4.75-14.92   c14.36-43.64,27.32-72.63,34.67-77.52c1.84-1.23,8.13-3.57,29.48-5.53h224.38c21.25,1.96,27.52,4.3,29.36,5.52   c7.35,4.9,20.31,33.89,34.659,77.52c2.311,7.08,3.99,12.47,4.79,15.03c0.011,0.03,0.021,0.05,0.021,0.08c0,0,0,0.01,0.01,0.01   c0.48,1.59,0.79,2.62,0.91,3c0.26,1.08,8.78,37.21,5.37,54.99h-312c-0.01,0-0.01,0-0.01,0c-0.01,0-0.01,0-0.01,0H68.63   c-3.39-17.681,5.01-53.5,5.36-54.96C74.11,229.4,74.44,228.34,74.94,226.67z M442.62,291.74v25.13   c-13.42,2.83-33.061,4.33-58.48,4.46v-29.59H442.62z M127.86,291.74v29.59c-25.42-0.13-45.06-1.63-58.48-4.46v-25.13H127.86z    M53.44,213.83c-19.54,0-22.89-4.55-23.28-5.25c0.16-9.21,6.74-10.08,8.13-10.16h27.28l7.03,12.5c-1.06,3.26-1.96,6.07-2.67,8.34   C62.77,214.09,53.95,213.84,53.44,213.83z M102.59,431.219c0,3.86-3.15,7-7.01,7h-42.6c-3.87,0-7.01-3.14-7.01-7v-29.75   c0.48,0.141,0.96,0.261,1.45,0.34c8.82,1.521,27.37,3.051,55.17,4.561V431.219z M211.05,383.65h-49.46c-3.93,0-7.13-3.19-7.13-7.12   c0-1.91,0.74-3.7,2.07-5.03c1.37-1.35,3.16-2.1,5.06-2.1h67.69c3.92,0,7.11,3.199,7.11,7.13c0,0.399-0.05,0.79-0.11,1.17h-14.94   C217.09,377.7,213.18,380.04,211.05,383.65z M295.571,406.469c-0.011,0.07-0.011,0.15-0.021,0.23c-0.14,2.54-2.34,4.609-4.89,4.609   h-69.32c-2.55,0-4.75-2.069-4.89-4.619c-0.01-0.08-0.01-0.08-0.02-0.16v-16.931c0-0.489,0.07-0.979,0.2-1.409   c0.64-2.061,2.58-3.49,4.71-3.49h69.33c2.12,0,4.061,1.439,4.69,3.439c0.14,0.471,0.21,0.96,0.21,1.46V406.469z M300.96,383.65   c-2.12-3.601-6.04-5.95-10.29-5.95h-14.95c-0.06-0.38-0.109-0.771-0.109-1.16c0-3.94,3.189-7.14,7.109-7.14h67.69   c1.89,0,3.689,0.75,5.05,2.09c1.34,1.34,2.08,3.13,2.08,5.05c0,3.92-3.2,7.11-7.13,7.11H300.96z M466.031,431.219   c0,3.86-3.141,7-7.011,7h-42.6c-3.86,0-7.01-3.14-7.01-7v-24.85c27.72-1.51,46.28-3.04,55.17-4.561c0.49-0.09,0.97-0.21,1.45-0.34   V431.219z M446.821,323.099c0.08-0.02,0.17-0.04,0.25-0.06c21.85-5.33,24.739-14.05,25.819-22.53l0.11-0.779   c1.76-13.33-6.34-14.881-6.69-14.94c-0.189-0.03-0.39-0.05-0.59-0.05h-15.27c2.069-13.33-0.99-33.47-3.351-45.83   c11.2,10.52,24.971,24.149,26.181,27.189c0.859,2.73,4.359,29.811,4.97,59.58c0.76,36.271-3.18,60.16-11.09,67.29   c-1.15,1.07-2.391,1.7-3.771,1.94c-8.84,1.51-28.779,3.12-57.659,4.64c-29.33,1.54-67.62,2.931-103.16,3.76V390.65h47.84   c7.79,0,14.13-6.33,14.13-14.11c0-3.78-1.47-7.33-4.15-10.01c-2.689-2.66-6.229-4.13-9.979-4.13h-67.69   c-7.779,0-14.109,6.34-14.109,14.14c0,0.39,0.04,0.77,0.069,1.16h-25.36c0.03-0.391,0.07-0.771,0.07-1.17   c0-7.79-6.33-14.13-14.11-14.13h-67.69c-3.75,0-7.3,1.47-10,4.14c-2.66,2.66-4.13,6.21-4.13,9.99c0,7.79,6.34,14.12,14.13,14.12   h47.84v12.659c-35.24-0.81-73.53-2.21-103.16-3.76c-29.36-1.54-48.76-3.1-57.66-4.64c-1.38-0.23-2.61-0.87-3.8-1.96   c-7.89-7.11-11.82-31-11.07-67.26c0.62-29.78,4.13-56.86,4.98-59.551c1.22-3.08,14.98-16.7,26.18-27.22   c-2.36,12.35-5.42,32.49-3.36,45.82H46.27c-0.19,0-0.39,0.01-0.59,0.05c-0.34,0.06-8.44,1.6-6.68,14.94l0.1,0.779   c1.09,8.49,3.98,17.21,25.88,22.54c0.05,0.01,0.1,0.021,0.15,0.03c14.74,3.54,36.41,5.25,66.23,5.25c1.93,0,3.5-1.561,3.5-3.5   v-33.09h242.28v33.09c0,1.939,1.57,3.5,3.5,3.5C410.42,328.33,432.071,326.62,446.821,323.099z M449.62,315.099V291.74h15.43   c0.62,0.49,1.63,2.37,1.01,7.06l-0.109,0.83C465.29,304.79,464.54,310.599,449.62,315.099z M62.38,291.74v23.359   c-14.93-4.5-15.67-10.31-16.33-15.479l-0.11-0.811c-0.62-4.699,0.39-6.579,1.01-7.069H62.38z M442.071,219.26   c-0.73-2.32-1.63-5.13-2.67-8.33l7.029-12.51H473.7c1.47,0.09,7.979,1,8.14,10.16c-0.39,0.7-3.74,5.25-23.35,5.26   C458.04,213.84,449.22,214.09,442.071,219.26z" fill="#052C49"/><path d="M377.24,368.07v16.02c0,1.84,1.42,3.36,3.26,3.49c8.81,0.6,16.93,0.91,24.12,0.91   c26.33,0,41.28-3.94,45.7-12.061c2.319-4.25,0.96-8.449-0.21-10.26c-0.641-1-1.75-1.6-2.94-1.6h-66.43   C378.8,364.57,377.24,366.139,377.24,368.07z M384.24,371.57H444.6c-0.02,0.479-0.14,1.02-0.47,1.6   c-1.439,2.5-8.18,8.32-39.51,8.32c-6.14,0-12.98-0.23-20.38-0.681V371.57z" fill="#052C49"/><path d="M369.3,294.719H142.7c-1.93,0-3.5,1.57-3.5,3.5v19.261c0,1.779,1.34,3.27,3.11,3.47   c0.28,0.04,21.43,2.37,61.34,3.63c0.08,0,0.15,0.02,0.23,0.02c0.05,0,0.09-0.01,0.14-0.01c14.61,0.45,31.72,0.76,51.22,0.76h1.52   c0,0,0,0,0.01,0c19.5,0,36.601-0.31,51.211-0.76c0.039,0,0.09,0.01,0.14,0.01c0.08,0,0.16-0.02,0.24-0.029   c39.899-1.25,61.05-3.59,61.33-3.62c1.77-0.2,3.109-1.69,3.109-3.48v-19.25C372.8,296.28,371.231,294.719,369.3,294.719z    M202.49,317.54c-30.13-0.98-49.21-2.57-56.29-3.23v-12.59h55.47c2.34,2.13,3.67,5.11,3.67,8.32   C205.34,312.809,204.31,315.48,202.49,317.54z M301.39,317.769c-13.069,0.351-27.96,0.58-44.63,0.58c-0.01,0-0.01,0-0.01,0h-1.51   c-16.67,0-31.56-0.22-44.63-0.569c1.12-2.4,1.73-5.04,1.73-7.74c0-2.96-0.7-5.79-1.99-8.32h91.3c-1.29,2.53-1.99,5.36-1.99,8.32   C299.66,312.74,300.27,315.38,301.39,317.769z M365.8,314.309c-7.08,0.66-26.16,2.25-56.29,3.221c-1.819-2.05-2.85-4.721-2.85-7.49   c0-3.22,1.33-6.19,3.67-8.32h55.47V314.309z" fill="#052C49"/><path d="M302.71,247.2l-30.85-2.1l-13.45-12.75c-1.351-1.28-3.47-1.28-4.82,0l-13.45,12.75l-30.85,2.1   c-1.6,0.11-2.92,1.29-3.21,2.87c-0.29,1.57,0.54,3.14,1.99,3.81l20.29,9.25l-4.37,11.93c-0.44,1.21-0.18,2.57,0.68,3.54   c0.86,0.96,2.19,1.37,3.44,1.061L256,272.8l27.89,6.86c0.28,0.07,0.561,0.1,0.841,0.1c0.979,0,1.93-0.41,2.6-1.16   c0.87-0.97,1.13-2.33,0.68-3.54l-4.37-11.93l20.29-9.25c1.45-0.67,2.28-2.24,1.99-3.81C305.63,248.49,304.31,247.31,302.71,247.2z    M277.79,258.11c-1.67,0.76-2.47,2.67-1.84,4.39l3.229,8.79l-22.34-5.5c-0.28-0.06-0.56-0.1-0.84-0.1s-0.56,0.04-0.84,0.1   l-22.33,5.5l3.22-8.79c0.63-1.72-0.17-3.63-1.83-4.39l-10.66-4.86l18.32-1.25c0.81-0.06,1.58-0.39,2.17-0.95L256,239.71   l11.96,11.34c0.59,0.56,1.35,0.89,2.17,0.95l18.311,1.25L277.79,258.11z" fill="#052C49"/></g></svg>